<?xml version="1.0" standalone="no"?>
<!DOCTYPE svg PUBLIC "-//W3C//DTD SVG 20010904//EN"
 "http://www.w3.org/TR/2001/REC-SVG-20010904/DTD/svg10.dtd">
<svg version="1.0" xmlns="http://www.w3.org/2000/svg"
 width="199.000000pt" height="199.000000pt" viewBox="0 0 199.000000 199.000000"
 preserveAspectRatio="xMidYMid meet">
<metadata>
Created by potrace 1.14, written by Peter Selinger 2001-2017
</metadata>
<g transform="translate(0.000000,199.000000) scale(0.100000,-0.100000)"
fill="#000000" stroke="none">
<path d="M800 1925 c-188 -39 -358 -133 -491 -271 -110 -116 -177 -227 -222
-369 -165 -523 134 -1064 669 -1211 80 -22 294 -30 390 -14 337 54 631 302
741 625 68 199 68 422 2 618 -110 320 -399 567 -733 626 -81 15 -276 12 -356
-4z m295 -6 c385 -47 696 -316 797 -689 33 -122 33 -347 0 -470 -120 -443
-542 -736 -995 -689 -388 40 -707 311 -809 689 -33 123 -33 348 1 470 110 407
454 677 891 699 14 0 66 -4 115 -10z"/>
<path d="M765 1886 c-158 -41 -284 -110 -402 -220 -123 -114 -219 -274 -265
-441 -28 -105 -31 -334 -5 -439 44 -174 117 -305 242 -431 186 -188 394 -275
656 -276 239 0 451 83 626 245 123 114 220 275 264 441 32 117 32 347 1 460
-28 99 -89 229 -146 309 -86 120 -236 241 -374 303 -171 76 -415 96 -597 49z
m83 -57 c-23 -13 -23 -57 -1 -81 13 -15 14 -18 2 -18 -24 0 -39 22 -39 55 0
34 15 55 40 55 12 -1 12 -2 -2 -11z m320 -51 c-11 -60 -12 -63 -27 -53 -8 4
-8 12 -1 26 6 10 10 25 9 32 -2 20 13 57 21 52 4 -2 3 -28 -2 -57z m-180 -1
c2 -21 -1 -37 -7 -37 -6 0 -9 14 -7 30 2 20 -2 34 -13 41 -14 8 -13 9 4 7 15
-2 21 -12 23 -41z m67 33 c17 -7 17 -9 3 -9 -13 -1 -18 -9 -18 -31 0 -16 -4
-30 -10 -30 -5 0 -10 18 -10 40 0 42 2 44 35 30z m65 -15 c-7 -8 -10 -26 -7
-40 3 -16 0 -24 -7 -22 -27 9 -13 77 16 77 6 0 5 -7 -2 -15z m87 -50 c-11 -38
-33 -50 -22 -12 4 12 9 30 12 40 2 9 8 15 13 12 4 -3 3 -21 -3 -40z m-257 24
c-11 -8 -12 -12 -2 -16 6 -2 9 -9 6 -14 -3 -6 -11 -5 -20 2 -11 9 -11 15 -3
25 6 8 17 14 23 14 6 0 4 -5 -4 -11z m-222 -11 c10 -10 8 -16 -10 -31 -16 -13
-19 -20 -10 -24 6 -2 12 -9 12 -14 0 -15 -37 8 -44 27 -3 8 -2 23 4 32 9 16 9
16 10 0 0 -20 15 -24 26 -7 3 6 0 15 -7 20 -8 5 -9 9 -3 9 5 0 16 -6 22 -12z
m556 6 c31 -12 16 -74 -18 -74 -42 0 -59 36 -30 64 17 18 24 19 48 10z m-637
-46 c-3 -8 -6 -5 -6 6 -1 11 2 17 5 13 3 -3 4 -12 1 -19z m705 -13 c-5 -28 3
-31 28 -12 9 6 2 -1 -14 -18 -31 -29 -31 -29 -34 -6 -5 30 6 73 17 67 5 -3 6
-17 3 -31z m-807 15 c3 -5 1 -10 -4 -10 -6 0 -11 5 -11 10 0 6 2 10 4 10 3 0
8 -4 11 -10z m75 -15 c7 -9 19 -14 27 -11 8 3 13 -2 13 -14 0 -11 -4 -20 -9
-20 -13 0 -61 40 -61 51 0 14 16 11 30 -6z m-35 -41 c10 -16 13 -30 8 -35 -6
-6 -16 5 -26 26 -19 41 -7 47 18 9z m433 9 c-16 -2 -40 -2 -55 0 -16 2 -3 4
27 4 30 0 43 -2 28 -4z m452 -19 c0 -8 -7 -26 -16 -39 -15 -23 -17 -23 -40 -8
-30 19 -31 43 -2 43 21 0 21 0 2 -15 -18 -14 -18 -14 0 -15 26 0 48 31 34 48
-8 9 -7 11 6 6 9 -3 16 -13 16 -20z m-956 1 c-19 -14 -17 -16 21 -19 37 -2 27
-56 -10 -56 -5 1 -2 5 8 11 9 5 17 15 17 20 0 6 -8 9 -17 8 -32 -3 -43 1 -43
14 0 15 20 37 34 37 5 0 1 -7 -10 -15z m389 8 c-7 -2 -21 -2 -30 0 -10 3 -4 5
12 5 17 0 24 -2 18 -5z m210 0 c-7 -2 -21 -2 -30 0 -10 3 -4 5 12 5 17 0 24
-2 18 -5z m-332 -29 c-40 -13 -87 -32 -105 -40 -17 -9 -26 -11 -20 -5 15 16
154 70 179 70 11 0 -13 -11 -54 -25z m404 16 c25 -11 -1 -11 -35 0 -20 6 -21
8 -5 8 11 0 29 -3 40 -8z m-25 -25 c112 -30 199 -82 291 -175 133 -133 189
-268 189 -455 0 -186 -57 -323 -189 -456 -71 -71 -101 -93 -171 -127 -110 -52
-173 -66 -290 -66 -116 0 -180 14 -290 66 -70 34 -100 56 -171 127 -133 134
-189 269 -189 456 0 327 219 584 550 646 60 11 201 3 270 -16z m80 5 c8 -5 11
-10 5 -10 -5 0 -17 5 -25 10 -8 5 -10 10 -5 10 6 0 17 -5 25 -10z m291 -17
c11 -15 11 -16 -1 -5 -22 19 -30 14 -24 -17 7 -36 -12 -50 -34 -25 -14 15 -14
16 -1 6 21 -15 31 -4 18 20 -19 35 17 54 42 21z m-1041 -18 c30 -32 17 -46
-15 -15 -31 29 -43 20 -24 -17 23 -48 23 -49 -10 -19 l-31 30 22 23 c27 29 29
29 58 -2z m843 -10 c109 -66 204 -163 253 -257 24 -46 8 -32 -22 20 -43 74
-151 179 -234 228 -41 24 -70 44 -65 44 6 0 36 -16 68 -35z m-718 -27 c-16
-12 -64 -56 -106 -97 -60 -61 -86 -96 -123 -171 -26 -52 -44 -84 -40 -70 19
70 101 201 162 260 31 30 123 100 131 100 3 0 -7 -10 -24 -22z m975 8 c0 -2 3
-13 6 -23 6 -16 5 -16 -9 2 -13 16 -19 18 -34 9 -10 -7 -18 -21 -17 -32 0 -12
-3 -19 -8 -16 -10 6 -11 48 -1 57 7 8 63 10 63 3z m-1186 -22 c22 -9 10 -23
-14 -17 -14 4 -20 0 -20 -12 0 -11 5 -15 16 -11 8 3 12 2 9 -4 -4 -6 4 -14 17
-19 l23 -10 -25 0 c-29 -1 -50 15 -50 39 0 9 5 21 12 28 14 14 12 14 32 6z
m1226 -29 c0 -3 -12 -17 -27 -30 -25 -21 -26 -24 -10 -30 11 -5 25 -1 37 10
11 10 23 15 28 11 4 -4 -6 -18 -23 -31 -27 -22 -31 -23 -47 -8 -24 22 -23 47
5 66 23 17 37 21 37 12z m-1240 -77 c0 -12 -8 -10 -35 8 -13 9 -29 13 -35 9
-5 -3 -10 -2 -10 4 0 17 25 19 53 3 15 -9 27 -20 27 -24z m-74 -8 c24 -17 44
-35 44 -41 0 -11 -3 -9 -63 31 -33 22 -47 40 -31 40 3 0 25 -14 50 -30z m1404
21 c0 -13 -90 -64 -98 -56 -4 4 0 10 8 15 8 5 29 18 45 29 34 22 45 25 45 12z
m-1417 -77 c-4 -11 -8 -12 -13 -4 -4 7 -13 9 -19 6 -16 -10 -14 -26 4 -26 8 0
15 -5 15 -11 0 -6 9 -9 20 -6 11 3 18 1 14 -4 -3 -5 -16 -9 -29 -9 -31 0 -52
35 -34 56 16 20 50 19 42 -2z m1427 -17 c0 -4 -14 -16 -32 -27 l-31 -19 -14
26 c-7 14 -13 29 -13 34 0 13 28 11 36 -3 4 -6 3 -8 -4 -4 -6 3 -13 2 -17 -4
-10 -16 21 -23 44 -11 13 7 18 18 15 29 -5 14 -4 15 5 2 6 -8 11 -18 11 -23z
m-1482 -44 c-2 -11 8 -22 25 -31 39 -19 27 -27 -17 -12 -40 13 -40 13 -26 41
13 24 22 25 18 2z m1515 -43 c-2 -2 -8 2 -13 10 -7 12 -15 13 -40 3 -44 -16
-47 2 -3 20 36 14 38 13 49 -7 6 -11 9 -23 7 -26z m-134 -35 c0 -5 -6 1 -14
15 -8 14 -14 30 -14 35 0 6 6 -1 14 -15 8 -14 14 -29 14 -35z m-1359 0 c6 -8
9 -23 6 -33 -4 -13 -1 -22 9 -26 8 -3 15 -9 15 -14 0 -5 -25 -2 -55 7 -50 15
-54 18 -48 41 3 14 8 28 10 33 7 12 50 8 63 -8z m1379 -65 c0 -9 -4 -8 -9 5
-5 11 -9 27 -9 35 0 9 4 8 9 -5 5 -11 9 -27 9 -35z m166 5 c24 -23 34 -65 16
-65 -5 0 -7 8 -5 18 11 45 -55 62 -88 22 -18 -22 -18 -22 -18 -2 0 21 34 52
58 52 7 0 24 -11 37 -25z m-1478 -7 c-3 -8 -6 -5 -6 6 -1 11 2 17 5 13 3 -3 4
-12 1 -19z m-88 -27 c9 -6 0 -10 -28 -13 -39 -3 -49 1 -34 15 9 10 45 8 62 -2z
m78 -23 c-3 -7 -5 -2 -5 12 0 14 2 19 5 13 2 -7 2 -19 0 -25z m1330 0 c-3 -7
-5 -2 -5 12 0 14 2 19 5 13 2 -7 2 -19 0 -25z m-1409 -33 c3 -3 -11 -5 -31 -5
-49 0 -50 -25 -2 -34 46 -9 38 -23 -9 -18 -30 3 -36 8 -36 27 0 45 9 54 42 44
17 -4 33 -11 36 -14z m69 -62 c-2 -16 -4 -3 -4 27 0 30 2 43 4 28 2 -16 2 -40
0 -55z m1350 10 c-2 -16 -4 -5 -4 22 0 28 2 40 4 28 2 -13 2 -35 0 -50z m105
22 c7 -16 17 -24 26 -20 8 3 12 0 10 -7 -3 -7 -20 -14 -39 -16 -32 -3 -35 -1
-33 25 1 39 3 43 14 43 6 0 16 -11 22 -25z m-1538 -61 c30 -30 8 -69 -35 -62
-38 5 -33 24 6 20 27 -3 35 -1 35 12 0 22 -28 32 -51 17 -11 -6 -19 -7 -19 -2
0 10 28 30 42 31 4 0 14 -7 22 -16z m1576 -24 c0 -12 -24 -12 -60 0 -21 7 -19
8 18 9 23 1 42 -3 42 -9z m-1493 -62 c-2 -13 -4 -3 -4 22 0 25 2 35 4 23 2
-13 2 -33 0 -45z m1350 0 c-2 -13 -4 -3 -4 22 0 25 2 35 4 23 2 -13 2 -33 0
-45z m124 4 c14 -12 20 -25 16 -35 -7 -17 -47 -24 -47 -8 0 5 8 8 18 7 9 0 17
6 17 14 0 10 -10 15 -32 15 -33 0 -43 9 -20 18 20 9 24 8 48 -11z m-1638 -35
c-11 -55 67 -60 94 -7 l13 25 0 -24 c0 -53 -62 -80 -102 -44 -18 16 -26 73 -9
73 4 0 6 -10 4 -23z m1504 -29 c-3 -7 -5 -2 -5 12 0 14 2 19 5 13 2 -7 2 -19
0 -25z m-1330 0 c-3 -8 -6 -5 -6 6 -1 11 2 17 5 13 3 -3 4 -12 1 -19z m10 -40
c-3 -8 -6 -5 -6 6 -1 11 2 17 5 13 3 -3 4 -12 1 -19z m1310 0 c-3 -8 -6 -5 -6
6 -1 11 2 17 5 13 3 -3 4 -12 1 -19z m-1151 -268 c77 -81 151 -133 248 -172
39 -16 58 -26 41 -23 -49 10 -166 72 -227 120 -85 68 -187 214 -212 305 -4 14
13 -17 39 -68 32 -64 66 -114 111 -162z m1108 158 c-39 -78 -79 -133 -142
-194 -50 -50 -175 -134 -198 -134 -5 0 20 17 56 37 95 53 217 179 265 275 22
42 41 75 43 73 2 -1 -9 -27 -24 -57z m-1214 -191 c0 -2 -10 -12 -22 -23 l-23
-19 19 23 c18 21 26 27 26 19z m10 -51 c0 -2 -8 -10 -17 -17 -16 -13 -17 -12
-4 4 13 16 21 21 21 13z m821 -102 c-18 -8 -47 -17 -65 -20 -18 -3 -8 3 24 15
65 23 89 25 41 5z m-312 -30 c9 -8 -55 -2 -74 6 -13 6 -5 7 25 3 25 -3 47 -7
49 -9z m204 -1 c-7 -2 -21 -2 -30 0 -10 3 -4 5 12 5 17 0 24 -2 18 -5z m-90
-10 c-18 -2 -48 -2 -65 0 -18 2 -4 4 32 4 36 0 50 -2 33 -4z"/>
<path d="M1252 1748 c-7 -7 -12 -20 -12 -30 0 -26 36 -23 43 4 10 35 -7 50
-31 26z"/>
<path d="M872 1449 c-24 -4 -68 -20 -99 -34 -30 -14 -72 -25 -93 -25 -44 0
-111 -44 -134 -89 -75 -144 45 -394 360 -753 36 -41 60 -58 52 -37 -4 11 3 14
32 11 43 -4 134 19 194 50 98 50 208 191 231 296 l7 32 -99 -57 c-182 -105
-271 -176 -331 -266 -36 -53 -39 -38 -5 24 57 107 138 179 378 335 176 116
227 182 204 266 -14 52 -61 104 -102 112 -43 8 -113 -13 -168 -51 -72 -48 -72
-49 -55 -15 36 70 6 154 -61 170 -174 44 -222 49 -311 31z m146 -48 c10 -6 9
-11 -4 -22 -31 -26 -64 -88 -86 -166 -21 -72 -23 -97 -22 -318 1 -132 -1 -234
-3 -227 -8 22 -25 13 -18 -10 5 -17 4 -20 -4 -13 -6 6 -12 23 -13 37 -1 15 -6
24 -10 22 -4 -3 -4 -12 -1 -22 8 -22 -105 113 -163 193 -71 100 -126 224 -131
297 -2 41 1 72 9 88 17 31 74 70 104 70 32 0 69 -52 90 -127 17 -61 34 -83 34
-44 0 48 55 166 97 208 43 43 87 56 121 34z"/>
<path d="M506 1114 c-5 -11 -10 -55 -13 -99 -10 -142 36 -262 139 -364 54 -53
146 -106 207 -117 l34 -7 -63 74 c-143 170 -238 327 -275 455 -16 57 -24 71
-29 58z"/>
<path d="M212 1213 c2 -12 12 -18 28 -18 36 0 33 29 -3 33 -23 3 -28 0 -25
-15z"/>
<path d="M1742 1049 c2 -7 10 -15 17 -17 8 -3 12 1 9 9 -2 7 -10 15 -17 17 -8
3 -12 -1 -9 -9z"/>
</g>
</svg>
